<svg width="1440" height="698" viewBox="0 0 1440 698" fill="none" xmlns="http://www.w3.org/2000/svg">
<path d="M3690 -261.334C3582.97 -283.375 3490.69 -437.642 3210.19 -459.683C2929.68 -481.724 2866.94 -341.225 2752.52 -261.334C2638.11 -181.442 2302.24 -208.998 2184.13 -24.4166C2066.02 160.165 1955.3 399.839 1715.39 369.545C1475.49 339.231 1319.6 103.519 1043.66 220.773C935.467 266.739 884.948 295.149 718.859 419.123C552.771 543.096 338.701 446.679 239.048 336.474C139.395 226.269 -59.9115 -84.5974 -273.981 -21.4455" stroke="url(#paint0_radial_1597_19660)" stroke-width="2" stroke-miterlimit="10" stroke-dasharray="6 6"/>
<path d="M3690 -250.691C3581.72 -272.848 3486.64 -425.951 3203.56 -447.701C2921.07 -469.431 2863.63 -328.135 2748.62 -247.428C2633.68 -166.799 2296.82 -195.501 2178.5 -9.65699C2060.26 176.031 1945.63 415.939 1705.8 385.198C1466.24 354.515 1311.42 117.443 1036.35 234.989C928.585 281.032 877.624 309.812 712.304 433.941C547.1 557.973 334.299 461.167 235.28 350.748C136.3 240.387 -61.5839 -70.7116 -273.981 -7.54028" stroke="url(#paint1_radial_1597_19660)" stroke-width="2" stroke-miterlimit="10" stroke-dasharray="6 6"/>
<path d="M3690 -240.068C3580.49 -262.362 3482.58 -414.28 3196.94 -435.719C2912.5 -457.119 2860.33 -315.047 2744.72 -233.544C2629.28 -152.176 2291.4 -182.024 2172.87 5.06286C2054.49 191.858 1935.94 431.999 1696.21 400.831C1457.01 369.779 1303.21 131.347 1029.05 249.184C921.723 295.286 870.3 324.435 705.769 448.719C541.43 572.809 329.897 475.615 231.532 364.982C133.225 254.447 -63.2174 -56.8851 -273.962 6.34449" stroke="url(#paint2_radial_1597_19660)" stroke-width="2" stroke-miterlimit="10" stroke-dasharray="6 6"/>
<path d="M3690 -229.427C3579.24 -251.837 3478.53 -402.59 3190.31 -423.718C2903.89 -444.807 2857.02 -301.939 2740.82 -219.62C2624.86 -137.514 2285.97 -168.508 2167.23 19.8216C2048.72 207.724 1926.27 448.078 1686.61 416.483C1447.77 385.062 1295.02 145.29 1021.74 263.399C914.84 309.579 862.957 339.077 699.213 463.517C535.758 587.665 325.495 490.082 227.745 379.217C130.11 268.507 -64.9095 -43.0584 -273.981 20.2101" stroke="url(#paint3_radial_1597_19660)" stroke-width="2" stroke-miterlimit="10" stroke-dasharray="6 6"/>
<path d="M3690 -218.804C3578.01 -241.35 3474.47 -390.919 3183.68 -411.756C2895.29 -432.515 2853.71 -288.87 2736.91 -205.754C2620.46 -122.911 2280.55 -155.05 2161.6 34.522C2042.95 223.531 1916.58 464.118 1677.02 432.096C1438.54 400.287 1286.81 159.175 1014.44 277.575C907.977 323.813 855.633 353.68 692.658 478.275C530.068 602.501 321.074 504.511 223.977 393.432C127.015 282.566 -66.5819 -29.2319 -273.981 34.0754" stroke="url(#paint4_radial_1597_19660)" stroke-width="2" stroke-miterlimit="10" stroke-dasharray="6 6"/>
<path d="M3690 -208.162C3576.76 -230.824 3470.43 -379.228 3177.05 -399.754C2886.68 -420.203 2850.41 -275.761 2733.01 -191.83C2616.04 -108.249 2275.11 -141.534 2155.97 49.2812C2037.19 239.397 1906.91 480.198 1667.41 447.748C1429.27 415.57 1278.6 173.099 1007.11 291.791C901.076 338.106 848.29 368.342 686.103 493.093C524.398 617.377 316.671 518.998 220.209 407.705C123.92 296.665 -68.2351 -15.3661 -273.981 47.9801" stroke="url(#paint5_radial_1597_19660)" stroke-width="2" stroke-miterlimit="10" stroke-dasharray="6 6"/>
<path d="M3690 -197.541C3575.53 -220.34 3466.38 -367.558 3170.43 -387.774C2878.11 -407.912 2847.1 -262.674 2729.11 -177.947C2611.64 -93.628 2269.69 -128.059 2150.34 63.9994C2031.42 255.222 1897.22 496.256 1657.82 463.379C1420.03 430.832 1270.39 187.002 999.807 305.985C894.214 352.358 840.965 382.963 679.548 507.869C518.727 632.212 312.25 533.444 216.441 421.938C120.806 310.723 -69.9076 -1.52164 -273.981 61.8633" stroke="url(#paint6_radial_1597_19660)" stroke-width="2" stroke-miterlimit="10" stroke-dasharray="6 6"/>
<path d="M3690 -186.898C3574.28 -209.813 3462.32 -355.866 3163.8 -375.791C2869.5 -395.599 2843.79 -249.584 2725.21 -164.041C2607.21 -78.9843 2264.27 -114.561 2144.7 78.7403C2025.67 271.051 1887.55 512.337 1648.23 479.013C1410.8 446.078 1262.18 200.927 992.502 320.162C887.332 366.614 833.642 397.568 673.012 522.629C513.056 647.03 307.868 547.875 212.693 436.135C117.731 324.765 -71.541 12.2676 -273.962 75.6914" stroke="url(#paint7_radial_1597_19660)" stroke-width="2" stroke-miterlimit="10" stroke-dasharray="6 6"/>
<path d="M3690 -176.275C3573.05 -199.326 3458.26 -344.195 3157.17 -363.808C2860.9 -383.305 2840.49 -236.495 2721.3 -150.156C2602.81 -64.3609 2258.85 -101.102 2139.07 93.4607C2019.91 286.878 1877.87 528.378 1638.63 494.646C1401.55 461.342 1254 214.832 985.198 334.359C880.469 380.868 826.318 412.192 666.457 537.428C507.385 661.887 303.446 562.343 208.926 450.39C114.636 338.845 -73.2135 26.1142 -273.962 89.5963" stroke="url(#paint8_radial_1597_19660)" stroke-width="2" stroke-miterlimit="10" stroke-dasharray="6 6"/>
<path d="M3690 -165.635C3571.8 -188.802 3454.21 -332.506 3150.54 -351.808C2852.29 -370.995 2837.18 -223.388 2717.4 -136.234C2598.39 -49.7006 2253.43 -87.5879 2133.44 108.218C2014.14 302.742 1868.2 544.475 1629.04 510.297C1392.33 476.624 1245.79 228.754 977.892 348.572C873.587 395.159 818.974 426.852 659.902 552.224C501.695 676.741 299.044 576.808 205.138 464.642C111.521 352.922 -74.9056 39.9782 -273.981 103.48" stroke="url(#paint9_radial_1597_19660)" stroke-width="2" stroke-miterlimit="10" stroke-dasharray="6 6"/>
<path d="M3690 -155.011C3570.57 -178.314 3450.15 -320.833 3143.93 -339.845C2843.72 -358.701 2833.87 -210.317 2713.5 -122.367C2593.99 -35.0957 2248.01 -74.1287 2127.81 122.92C2008.37 318.551 1858.51 560.517 1619.45 525.912C1383.08 491.85 1237.6 242.66 970.588 362.75C866.725 409.395 811.65 441.457 653.366 566.984C496.044 691.559 294.642 591.239 201.39 478.858C108.446 366.983 -76.5391 53.787 -273.962 117.347" stroke="url(#paint10_radial_1597_19660)" stroke-width="2" stroke-miterlimit="10" stroke-dasharray="6 6"/>
<path d="M3690 -144.368C3569.32 -167.788 3446.1 -309.142 3137.29 -327.843C2835.11 -346.389 2830.57 -197.209 2709.6 -108.442C2589.57 -20.4337 2242.59 -60.6125 2122.17 137.679C2002.61 334.417 1848.84 576.597 1609.86 541.564C1373.85 507.133 1229.39 256.584 963.283 376.965C859.843 423.688 804.326 456.099 646.811 581.782C490.373 706.435 290.24 605.706 197.623 493.093C105.351 381.043 -78.2115 67.6333 -273.962 131.212" stroke="url(#paint11_radial_1597_19660)" stroke-width="2" stroke-miterlimit="10" stroke-dasharray="6 6"/>
<path d="M3690 -133.746C3568.09 -157.302 3442.04 -297.472 3130.66 -315.881C2826.51 -334.116 2827.26 -184.14 2705.69 -94.5775C2585.15 -5.85018 2237.17 -47.1553 2116.54 152.379C1996.84 350.224 1839.17 592.637 1600.26 557.177C1364.61 522.377 1221.2 270.469 955.959 391.141C852.961 437.922 796.983 470.702 640.237 596.559C484.663 721.271 285.799 620.154 193.835 507.327C102.236 395.103 -79.9036 81.4595 -273.981 145.097" stroke="url(#paint12_radial_1597_19660)" stroke-width="2" stroke-miterlimit="10" stroke-dasharray="6 6"/>
<path d="M3690 -123.103C3566.84 -146.775 3437.98 -285.779 3124.03 -303.878C2817.9 -321.783 2823.96 -171.03 2701.79 -80.6518C2580.74 8.81344 2231.73 -33.6375 2110.91 167.14C1991.07 366.092 1829.48 608.718 1590.65 572.831C1355.34 537.662 1212.97 284.394 948.635 405.358C846.06 452.217 789.639 485.366 633.681 611.359C478.992 736.129 281.397 634.624 190.067 521.583C99.1415 409.203 -81.5568 95.3076 -273.981 158.984" stroke="url(#paint13_radial_1597_19660)" stroke-width="2" stroke-miterlimit="10" stroke-dasharray="6 6"/>
<path d="M3690 -112.48C3565.61 -136.288 3433.93 -274.108 3117.42 -291.896C2809.33 -309.49 2820.65 -157.941 2697.89 -66.7668C2576.32 23.4364 2226.31 -20.1602 2105.28 181.86C1985.3 381.919 1819.81 624.778 1581.06 588.464C1346.11 552.907 1204.76 298.318 941.33 419.554C839.178 466.471 782.296 499.989 627.126 626.137C473.321 750.965 276.975 649.072 186.28 535.818C96.0273 423.263 -83.2485 109.154 -274 172.869" stroke="url(#paint14_radial_1597_19660)" stroke-width="2" stroke-miterlimit="10" stroke-dasharray="6 6"/>
<path d="M3690 -101.841C3564.36 -125.765 3429.89 -262.4 3110.79 -279.917C2800.71 -297.2 2817.34 -144.855 2693.99 -52.8649C2571.92 38.0762 2220.88 -6.6855 2099.64 196.597C1979.54 397.763 1810.12 640.855 1571.47 604.094C1336.87 568.168 1196.58 312.22 934.025 433.747C832.315 480.722 774.972 514.609 620.571 640.933C467.631 765.819 272.573 663.537 182.512 550.05C92.9323 437.32 -84.9017 122.978 -274 186.732" stroke="url(#paint15_radial_1597_19660)" stroke-width="2" stroke-miterlimit="10" stroke-dasharray="6 6"/>
<path d="M3690 -91.2192C3563.13 -115.28 3425.83 -250.73 3104.15 -267.936C2792.12 -284.889 2814.04 -131.767 2690.09 -38.981C2567.5 52.6981 2215.46 6.79057 2094.01 211.316C1973.77 413.589 1800.45 656.894 1561.87 619.726C1327.64 583.431 1188.37 326.124 926.72 447.922C825.433 494.975 767.648 529.212 614.035 655.69C461.98 780.635 268.171 677.964 178.764 564.264C89.8566 451.379 -86.5549 136.804 -273.981 200.596" stroke="url(#paint16_radial_1597_19660)" stroke-width="2" stroke-miterlimit="10" stroke-dasharray="6 6"/>
<path d="M3690 -80.5776C3561.88 -104.755 3421.78 -239.04 3097.52 -255.935C2783.51 -272.577 2810.73 -118.659 2686.18 -25.0575C2563.1 67.3595 2210.04 20.3062 2088.38 226.074C1968 429.454 1790.77 672.993 1552.28 635.377C1318.39 598.694 1180.18 340.066 919.415 462.137C818.57 509.248 760.324 543.873 607.48 670.488C456.29 795.51 263.769 692.432 174.996 578.517C86.7425 465.457 -88.2273 150.649 -273.981 214.481" stroke="url(#paint17_radial_1597_19660)" stroke-width="2" stroke-miterlimit="10" stroke-dasharray="6 6"/>
<path d="M3690 -69.9523C3560.65 -94.2654 3417.72 -227.366 3090.91 -243.97C2774.92 -260.282 2807.42 -105.587 2682.28 -11.1892C2558.68 81.9658 2204.62 33.7669 2082.75 240.778C1962.24 445.264 1781.1 689.036 1542.69 650.993C1309.15 613.941 1171.97 353.954 912.11 476.316C811.688 523.505 753 558.479 600.925 685.249C450.619 810.33 259.348 706.863 171.228 592.735C83.6474 479.501 -89.8805 164.459 -274 228.349" stroke="url(#paint18_radial_1597_19660)" stroke-width="2" stroke-miterlimit="10" stroke-dasharray="6 6"/>
<path d="M3690 -59.3103C3559.4 -83.7399 3413.67 -215.675 3084.28 -231.968C2766.32 -247.97 2804.12 -92.4786 2678.38 2.73474C2554.27 96.6276 2199.2 47.2829 2077.11 255.537C1956.47 461.13 1771.41 705.116 1533.1 666.646C1299.92 629.224 1163.76 367.878 904.806 490.531C804.826 537.778 745.676 573.122 594.389 700.067C444.967 825.205 254.965 721.35 167.48 607.009C80.5718 493.619 -91.5337 178.345 -273.981 242.254" stroke="url(#paint19_radial_1597_19660)" stroke-width="2" stroke-miterlimit="10" stroke-dasharray="6 6"/>
<path d="M3690 -48.6875C3558.17 -73.2531 3409.61 -204.004 3077.64 -219.986C2757.71 -235.677 2800.81 -79.3896 2674.48 16.6394C2549.85 111.27 2193.78 60.7798 2071.48 270.276C1950.72 476.957 1761.74 721.195 1523.5 682.298C1290.67 644.489 1155.57 381.802 897.501 504.746C797.944 552.072 738.333 587.765 587.834 714.865C439.277 840.062 250.544 735.818 163.693 621.244C77.4577 507.679 -93.2253 192.172 -274 256.139" stroke="url(#paint20_radial_1597_19660)" stroke-width="2" stroke-miterlimit="10" stroke-dasharray="6 6"/>
<path d="M3690 -38.0476C3556.92 -62.7297 3405.55 -192.315 3071.01 -208.006C2749.12 -223.367 2797.5 -66.3029 2670.57 30.5223C2545.43 125.891 2188.34 74.2548 2065.85 284.994C1944.95 492.782 1752.05 737.253 1513.89 697.909C1281.43 659.731 1147.34 395.704 890.177 518.921C791.062 566.304 730.989 602.385 581.279 729.621C433.606 854.877 246.141 750.245 159.925 635.457C74.3626 521.717 -94.8785 205.996 -274 270.003" stroke="url(#paint21_radial_1597_19660)" stroke-width="2" stroke-miterlimit="10" stroke-dasharray="6 6"/>
<path d="M3690 -27.4244C3555.69 -52.2424 3401.5 -180.644 3064.4 -196.024C2740.53 -211.074 2794.2 -53.2134 2666.67 44.4274C2541.03 140.534 2182.92 87.7327 2060.22 299.734C1939.19 508.629 1742.38 753.314 1504.3 713.562C1272.18 675.015 1139.16 409.629 882.872 533.136C784.18 580.597 723.665 617.028 574.724 744.439C427.916 869.753 241.72 764.732 156.157 649.731C71.2678 535.836 -96.551 219.862 -274 283.908" stroke="url(#paint22_radial_1597_19660)" stroke-width="2" stroke-miterlimit="10" stroke-dasharray="6 6"/>
<path d="M3690 -16.7853C3554.44 -41.7199 3397.44 -168.956 3057.77 -184.025C2731.93 -198.765 2790.89 -40.1081 2662.77 58.329C2536.61 155.174 2177.5 101.226 2054.58 314.471C1933.42 524.473 1732.71 769.39 1494.71 729.192C1262.93 690.276 1130.95 423.531 875.567 547.329C777.317 594.849 716.341 631.648 568.169 759.215C422.245 884.586 237.318 779.178 152.39 663.962C68.1729 549.893 -98.2042 233.686 -274 297.79" stroke="url(#paint23_radial_1597_19660)" stroke-width="2" stroke-miterlimit="10" stroke-dasharray="6 6"/>
<path d="M3690 -6.16039C3553.21 -31.2309 3393.41 -157.282 3051.14 -172.06C2723.32 -186.47 2787.59 -27.0363 2658.87 72.2163C2532.2 169.799 2172.08 114.706 2048.95 329.193C1927.65 540.302 1723.02 785.433 1485.12 744.827C1253.71 705.522 1122.76 437.437 868.262 561.527C770.435 609.124 709.017 646.274 561.633 773.995C416.594 899.444 232.916 793.628 148.641 678.18C65.097 563.935 -99.8573 247.515 -273.981 311.638" stroke="url(#paint24_radial_1597_19660)" stroke-width="2" stroke-miterlimit="10" stroke-dasharray="6 6"/>
<path d="M3690 4.48235C3551.96 -20.7046 3389.35 -145.591 3044.5 -160.058C2714.73 -174.157 2784.28 -13.9272 2654.96 86.1216C2527.78 184.442 2166.66 128.204 2043.32 343.953C1921.89 556.169 1713.35 801.533 1475.52 760.48C1244.46 720.807 1114.55 451.381 860.958 575.724C763.573 623.379 701.674 660.917 555.078 788.775C410.904 914.282 228.514 808.077 144.854 692.415C61.9829 578.016 -101.549 261.343 -274 325.524" stroke="url(#paint25_radial_1597_19660)" stroke-width="2" stroke-miterlimit="10" stroke-dasharray="6 6"/>
<path d="M3690 15.1042C3550.73 -10.2187 3385.29 -133.92 3037.89 -148.077C2706.14 -161.865 2780.97 -0.839074 2651.06 100.025C2523.38 199.084 2161.24 141.699 2037.69 358.692C1916.12 572.014 1703.66 817.612 1465.93 776.132C1235.23 736.089 1106.34 465.305 853.653 589.938C756.691 637.671 694.35 675.559 548.523 803.591C405.233 929.157 224.092 822.564 141.087 706.688C58.8881 592.113 -103.202 275.227 -274 339.428" stroke="url(#paint26_radial_1597_19660)" stroke-width="2" stroke-miterlimit="10" stroke-dasharray="6 6"/>
<path d="M3690 25.7445C3549.48 0.305111 3381.24 -122.231 3031.26 -136.097C2697.54 -149.555 2777.67 12.248 2647.16 113.909C2518.96 213.705 2155.81 155.175 2032.06 373.41C1910.35 587.839 1694 833.65 1456.34 791.743C1225.99 751.312 1098.15 479.188 846.348 604.113C749.828 651.904 687.026 690.16 541.987 818.348C399.562 943.972 219.709 836.991 137.338 720.901C55.793 606.152 -104.855 289.033 -273.981 353.292" stroke="url(#paint27_radial_1597_19660)" stroke-width="2" stroke-miterlimit="10" stroke-dasharray="6 6"/>
<path d="M3690 36.3673C3548.23 10.7919 3377.18 -110.56 3024.63 -124.115C2688.93 -137.262 2774.36 25.337 2643.26 127.813C2514.56 228.348 2150.39 168.672 2026.42 388.15C1904.59 603.686 1684.31 849.73 1446.75 807.396C1216.74 766.596 1089.94 493.131 839.043 618.328C742.946 666.178 679.702 704.803 535.432 833.146C393.891 958.828 215.288 851.458 133.57 735.136C52.6981 620.232 -106.528 302.86 -273.981 367.158" stroke="url(#paint28_radial_1597_19660)" stroke-width="2" stroke-miterlimit="10" stroke-dasharray="6 6"/>
<path d="M3690 47.0095C3547 21.3177 3373.12 -98.8691 3017.99 -112.113C2680.34 -124.93 2771.05 38.4456 2639.36 141.718C2510.14 242.99 2144.97 182.169 2020.79 402.89C1898.82 619.533 1674.64 865.81 1437.15 823.029C1207.51 781.86 1081.76 507.036 831.738 632.524C736.084 680.451 672.378 719.446 528.876 847.944C388.22 973.685 210.886 865.926 129.803 749.39C49.6033 634.311 -108.181 316.726 -273.981 381.062" stroke="url(#paint29_radial_1597_19660)" stroke-width="2" stroke-miterlimit="10" stroke-dasharray="6 6"/>
<path d="M3690 57.6309C3545.75 31.8031 3369.07 -87.1797 3011.38 -100.152C2671.75 -112.658 2767.75 51.5138 2635.45 155.602C2505.73 257.612 2139.53 195.625 2015.16 417.609C1893.05 635.359 1664.95 881.849 1427.54 838.661C1198.25 797.103 1073.53 520.939 824.414 646.719C729.182 694.704 665.034 734.067 522.321 862.721C382.53 988.54 206.465 880.373 126.035 763.624C46.5084 648.37 -109.853 330.551 -273.981 394.927" stroke="url(#paint30_radial_1597_19660)" stroke-width="2" stroke-miterlimit="10" stroke-dasharray="6 6"/>
<path d="M3690 68.2754C3544.52 42.3311 3365.01 -75.4865 3004.75 -88.148C2663.15 -100.343 2764.44 64.6246 2631.55 169.509C2501.31 272.238 2134.11 209.124 2009.53 432.351C1887.29 651.207 1655.28 897.931 1417.95 854.296C1189.02 812.369 1065.32 534.846 817.109 660.917C722.32 708.98 657.691 748.693 515.766 877.502C376.859 1003.38 202.062 894.824 122.248 777.861C43.3941 662.451 -111.526 344.4 -274 408.814" stroke="url(#paint31_radial_1597_19660)" stroke-width="2" stroke-miterlimit="10" stroke-dasharray="6 6"/>
<path d="M3690 78.8952C3543.27 52.815 3360.96 -63.818 2998.12 -76.1688C2654.54 -88.0341 2761.13 77.7106 2627.65 183.41C2496.89 286.877 2128.69 222.618 2003.91 447.087C1881.54 667.051 1645.63 913.988 1408.38 869.945C1179.79 827.65 1057.15 548.787 809.824 675.129C715.457 723.251 650.386 763.332 509.23 892.297C371.208 1018.23 197.68 909.289 118.499 792.093C40.3184 676.508 -113.179 358.224 -273.981 422.677" stroke="url(#paint32_radial_1597_19660)" stroke-width="2" stroke-miterlimit="10" stroke-dasharray="6 6"/>
<path d="M3690 89.5377C3542.04 63.3409 3356.9 -52.1269 2991.49 -64.1864C2645.95 -75.7409 2757.83 90.7806 2623.75 197.296C2492.49 301.501 2123.27 236.096 1998.28 461.808C1875.79 682.859 1635.94 930.049 1398.79 885.559C1170.57 842.895 1048.94 562.672 802.519 689.306C708.595 737.505 643.063 777.956 502.695 907.076C365.537 1033.07 193.278 923.738 114.751 806.328C37.243 690.569 -114.832 372.051 -273.962 436.563" stroke="url(#paint33_radial_1597_19660)" stroke-width="2" stroke-miterlimit="10" stroke-dasharray="6 6"/>
<path d="M3690 100.163C3540.79 73.8301 3352.86 -40.4533 2984.87 -52.202C2637.36 -63.4459 2754.52 103.872 2619.84 211.203C2488.07 316.146 2117.85 249.595 1992.65 476.55C1870.02 698.708 1626.27 946.131 1389.19 901.214C1161.32 858.161 1040.75 576.599 795.195 703.505C701.693 751.762 635.719 792.582 496.12 921.857C359.847 1047.91 188.856 938.188 110.964 820.565C34.1285 704.65 -116.505 385.9 -273.981 450.431" stroke="url(#paint34_radial_1597_19660)" stroke-width="2" stroke-miterlimit="10" stroke-dasharray="6 6"/>
<path d="M3690 110.801C3539.56 84.3521 3348.81 -28.766 2978.24 -40.2235C2628.76 -51.1372 2751.22 116.957 2615.94 225.085C2483.67 330.765 2112.43 263.069 1987.02 491.267C1864.26 714.532 1616.58 962.168 1379.6 916.824C1152.07 873.402 1032.54 590.48 787.89 717.677C694.831 766.012 628.396 807.182 489.585 936.612C354.176 1062.72 184.455 952.614 107.216 834.777C31.0533 718.687 -118.157 399.704 -273.962 464.293" stroke="url(#paint35_radial_1597_19660)" stroke-width="2" stroke-miterlimit="10" stroke-dasharray="6 6"/>
<path d="M3690 121.424C3538.31 94.8389 3344.75 -17.0947 2971.61 -28.2414C2620.15 -38.8444 2747.91 130.046 2612.04 238.989C2479.24 345.408 2107.01 276.566 1981.38 506.006C1858.49 730.378 1606.91 978.248 1370.01 932.476C1142.85 888.685 1024.35 604.424 780.585 731.893C687.949 780.286 621.052 821.844 483.029 951.429C348.505 1077.6 180.052 967.101 103.428 849.05C27.9388 732.786 -119.849 413.589 -273.981 478.198" stroke="url(#paint36_radial_1597_19660)" stroke-width="2" stroke-miterlimit="10" stroke-dasharray="6 6"/>
<path d="M3690 132.066C3537.08 105.364 3340.69 -5.40426 2964.98 -16.2403C2611.54 -26.5326 2744.6 143.154 2608.14 252.893C2474.84 360.05 2101.59 290.043 1975.75 520.745C1852.72 746.224 1597.23 994.327 1360.42 948.109C1133.6 903.929 1016.15 618.328 773.28 746.088C681.086 794.559 613.728 836.466 476.474 966.208C342.834 1092.45 175.631 981.549 99.6604 863.265C24.8437 746.846 -121.503 427.396 -273.981 492.063" stroke="url(#paint37_radial_1597_19660)" stroke-width="2" stroke-miterlimit="10" stroke-dasharray="6 6"/>
<path d="M3690 142.69C3535.83 115.853 3336.64 6.26888 2958.36 -4.27586C2602.97 -14.238 2741.3 156.226 2604.23 266.78C2470.42 374.674 2096.15 303.522 1970.12 535.467C1846.95 762.053 1587.56 1010.37 1350.8 963.743C1124.35 919.195 1007.92 632.234 765.956 760.286C674.185 808.815 606.384 851.091 469.919 980.987C337.144 1107.29 171.229 995.999 95.8927 877.501C21.7296 760.907 -123.175 441.244 -273.981 505.93" stroke="url(#paint38_radial_1597_19660)" stroke-width="2" stroke-miterlimit="10" stroke-dasharray="6 6"/>
<path d="M3690 153.33C3534.6 126.375 3332.58 17.9569 2951.73 7.7229C2594.35 -1.92855 2737.99 169.331 2600.33 280.682C2466.02 389.314 2090.72 317.016 1964.49 550.204C1841.19 777.897 1577.87 1026.45 1341.21 979.373C1115.11 934.456 999.73 646.156 758.652 774.479C667.322 823.086 599.061 865.711 463.364 995.763C331.473 1122.13 166.807 1010.44 92.1251 891.733C18.6347 774.965 -124.828 455.069 -273.981 519.813" stroke="url(#paint39_radial_1597_19660)" stroke-width="2" stroke-miterlimit="10" stroke-dasharray="6 6"/>
<path d="M3690 163.956C3533.35 136.866 3328.53 29.6316 2945.1 19.7082C2585.76 10.3869 2734.68 182.424 2596.43 294.59C2461.6 403.96 2085.3 330.516 1958.85 564.947C1835.42 793.747 1568.2 1042.51 1331.62 995.029C1105.86 949.723 991.522 660.083 751.347 788.698C660.44 837.363 591.736 880.377 456.809 1010.58C325.783 1137 162.405 1024.93 88.3572 906.01C15.5396 789.086 -126.501 468.938 -273.981 533.721" stroke="url(#paint40_radial_1597_19660)" stroke-width="2" stroke-miterlimit="10" stroke-dasharray="6 6"/>
<path d="M3690 174.594C3532.12 147.388 3324.47 41.3188 2938.47 31.6868C2577.15 22.6762 2731.36 195.509 2592.53 308.472C2457.18 418.58 2079.88 343.99 1953.22 579.664C1829.65 809.571 1558.51 1058.57 1322.03 1010.64C1096.63 964.965 983.333 673.965 744.042 802.871C653.578 851.614 584.413 894.977 450.273 1025.34C320.132 1151.82 158.003 1039.36 84.6092 920.203C12.4645 803.104 -128.153 482.742 -273.962 547.564" stroke="url(#paint41_radial_1597_19660)" stroke-width="2" stroke-miterlimit="10" stroke-dasharray="6 6"/>
<defs>
<radialGradient id="paint0_radial_1597_19660" cx="0" cy="0" r="1" gradientUnits="userSpaceOnUse" gradientTransform="translate(2481.42 237.547) rotate(180) scale(3201.28 740.147)">
<stop offset="0.03" stop-color="#47CBC3"/>
<stop offset="1" stop-color="#6B65EB"/>
</radialGradient>
<radialGradient id="paint1_radial_1597_19660" cx="0" cy="0" r="1" gradientUnits="userSpaceOnUse" gradientTransform="translate(2481.42 251.609) rotate(180) scale(3201.28 742.27)">
<stop offset="0.03" stop-color="#47CBC3"/>
<stop offset="1" stop-color="#6B65EB"/>
</radialGradient>
<radialGradient id="paint2_radial_1597_19660" cx="0" cy="0" r="1" gradientUnits="userSpaceOnUse" gradientTransform="translate(2481.43 265.643) rotate(180) scale(3201.26 744.361)">
<stop offset="0.03" stop-color="#47CBC3"/>
<stop offset="1" stop-color="#6B65EB"/>
</radialGradient>
<radialGradient id="paint3_radial_1597_19660" cx="0" cy="0" r="1" gradientUnits="userSpaceOnUse" gradientTransform="translate(2481.42 279.694) rotate(180) scale(3201.28 746.457)">
<stop offset="0.03" stop-color="#47CBC3"/>
<stop offset="1" stop-color="#6B65EB"/>
</radialGradient>
<radialGradient id="paint4_radial_1597_19660" cx="0" cy="0" r="1" gradientUnits="userSpaceOnUse" gradientTransform="translate(2481.42 293.714) rotate(180) scale(3201.28 748.558)">
<stop offset="0.03" stop-color="#47CBC3"/>
<stop offset="1" stop-color="#6B65EB"/>
</radialGradient>
<radialGradient id="paint5_radial_1597_19660" cx="0" cy="0" r="1" gradientUnits="userSpaceOnUse" gradientTransform="translate(2481.42 307.781) rotate(180) scale(3201.28 750.671)">
<stop offset="0.03" stop-color="#47CBC3"/>
<stop offset="1" stop-color="#6B65EB"/>
</radialGradient>
<radialGradient id="paint6_radial_1597_19660" cx="0" cy="0" r="1" gradientUnits="userSpaceOnUse" gradientTransform="translate(2481.42 321.811) rotate(180) scale(3201.28 752.771)">
<stop offset="0.03" stop-color="#47CBC3"/>
<stop offset="1" stop-color="#6B65EB"/>
</radialGradient>
<radialGradient id="paint7_radial_1597_19660" cx="0" cy="0" r="1" gradientUnits="userSpaceOnUse" gradientTransform="translate(2481.43 335.83) rotate(180) scale(3201.26 754.854)">
<stop offset="0.03" stop-color="#47CBC3"/>
<stop offset="1" stop-color="#6B65EB"/>
</radialGradient>
<radialGradient id="paint8_radial_1597_19660" cx="0" cy="0" r="1" gradientUnits="userSpaceOnUse" gradientTransform="translate(2481.43 349.877) rotate(180) scale(3201.26 756.971)">
<stop offset="0.03" stop-color="#47CBC3"/>
<stop offset="1" stop-color="#6B65EB"/>
</radialGradient>
<radialGradient id="paint9_radial_1597_19660" cx="0" cy="0" r="1" gradientUnits="userSpaceOnUse" gradientTransform="translate(2481.42 363.927) rotate(180) scale(3201.28 759.075)">
<stop offset="0.03" stop-color="#47CBC3"/>
<stop offset="1" stop-color="#6B65EB"/>
</radialGradient>
<radialGradient id="paint10_radial_1597_19660" cx="0" cy="0" r="1" gradientUnits="userSpaceOnUse" gradientTransform="translate(2481.43 377.941) rotate(180) scale(3201.26 761.177)">
<stop offset="0.03" stop-color="#47CBC3"/>
<stop offset="1" stop-color="#6B65EB"/>
</radialGradient>
<radialGradient id="paint11_radial_1597_19660" cx="0" cy="0" r="1" gradientUnits="userSpaceOnUse" gradientTransform="translate(2481.43 391.998) rotate(180) scale(3201.26 763.289)">
<stop offset="0.03" stop-color="#47CBC3"/>
<stop offset="1" stop-color="#6B65EB"/>
</radialGradient>
<radialGradient id="paint12_radial_1597_19660" cx="0" cy="0" r="1" gradientUnits="userSpaceOnUse" gradientTransform="translate(2481.42 406.024) rotate(180) scale(3201.28 765.412)">
<stop offset="0.03" stop-color="#47CBC3"/>
<stop offset="1" stop-color="#6B65EB"/>
</radialGradient>
<radialGradient id="paint13_radial_1597_19660" cx="0" cy="0" r="1" gradientUnits="userSpaceOnUse" gradientTransform="translate(2481.42 420.077) rotate(180) scale(3201.28 767.518)">
<stop offset="0.03" stop-color="#47CBC3"/>
<stop offset="1" stop-color="#6B65EB"/>
</radialGradient>
<radialGradient id="paint14_radial_1597_19660" cx="0" cy="0" r="1" gradientUnits="userSpaceOnUse" gradientTransform="translate(2481.42 434.108) rotate(180) scale(3201.29 769.628)">
<stop offset="0.03" stop-color="#47CBC3"/>
<stop offset="1" stop-color="#6B65EB"/>
</radialGradient>
<radialGradient id="paint15_radial_1597_19660" cx="0" cy="0" r="1" gradientUnits="userSpaceOnUse" gradientTransform="translate(2481.42 448.151) rotate(180) scale(3201.29 771.754)">
<stop offset="0.03" stop-color="#47CBC3"/>
<stop offset="1" stop-color="#6B65EB"/>
</radialGradient>
<radialGradient id="paint16_radial_1597_19660" cx="0" cy="0" r="1" gradientUnits="userSpaceOnUse" gradientTransform="translate(2481.42 462.167) rotate(180) scale(3201.28 773.848)">
<stop offset="0.03" stop-color="#47CBC3"/>
<stop offset="1" stop-color="#6B65EB"/>
</radialGradient>
<radialGradient id="paint17_radial_1597_19660" cx="0" cy="0" r="1" gradientUnits="userSpaceOnUse" gradientTransform="translate(2481.42 476.223) rotate(180) scale(3201.28 775.969)">
<stop offset="0.03" stop-color="#47CBC3"/>
<stop offset="1" stop-color="#6B65EB"/>
</radialGradient>
<radialGradient id="paint18_radial_1597_19660" cx="0" cy="0" r="1" gradientUnits="userSpaceOnUse" gradientTransform="translate(2481.42 490.237) rotate(180) scale(3201.29 778.081)">
<stop offset="0.03" stop-color="#47CBC3"/>
<stop offset="1" stop-color="#6B65EB"/>
</radialGradient>
<radialGradient id="paint19_radial_1597_19660" cx="0" cy="0" r="1" gradientUnits="userSpaceOnUse" gradientTransform="translate(2481.42 504.302) rotate(180) scale(3201.28 780.212)">
<stop offset="0.03" stop-color="#47CBC3"/>
<stop offset="1" stop-color="#6B65EB"/>
</radialGradient>
<radialGradient id="paint20_radial_1597_19660" cx="0" cy="0" r="1" gradientUnits="userSpaceOnUse" gradientTransform="translate(2481.42 518.346) rotate(180) scale(3201.29 782.344)">
<stop offset="0.03" stop-color="#47CBC3"/>
<stop offset="1" stop-color="#6B65EB"/>
</radialGradient>
<radialGradient id="paint21_radial_1597_19660" cx="0" cy="0" r="1" gradientUnits="userSpaceOnUse" gradientTransform="translate(2481.42 532.361) rotate(180) scale(3201.29 784.444)">
<stop offset="0.03" stop-color="#47CBC3"/>
<stop offset="1" stop-color="#6B65EB"/>
</radialGradient>
<radialGradient id="paint22_radial_1597_19660" cx="0" cy="0" r="1" gradientUnits="userSpaceOnUse" gradientTransform="translate(2481.42 546.42) rotate(180) scale(3201.29 786.594)">
<stop offset="0.03" stop-color="#47CBC3"/>
<stop offset="1" stop-color="#6B65EB"/>
</radialGradient>
<radialGradient id="paint23_radial_1597_19660" cx="0" cy="0" r="1" gradientUnits="userSpaceOnUse" gradientTransform="translate(2481.42 560.453) rotate(180) scale(3201.29 788.699)">
<stop offset="0.03" stop-color="#47CBC3"/>
<stop offset="1" stop-color="#6B65EB"/>
</radialGradient>
<radialGradient id="paint24_radial_1597_19660" cx="0" cy="0" r="1" gradientUnits="userSpaceOnUse" gradientTransform="translate(2481.42 574.486) rotate(180) scale(3201.28 790.84)">
<stop offset="0.03" stop-color="#47CBC3"/>
<stop offset="1" stop-color="#6B65EB"/>
</radialGradient>
<radialGradient id="paint25_radial_1597_19660" cx="0" cy="0" r="1" gradientUnits="userSpaceOnUse" gradientTransform="translate(2481.42 588.522) rotate(180) scale(3201.29 792.948)">
<stop offset="0.03" stop-color="#47CBC3"/>
<stop offset="1" stop-color="#6B65EB"/>
</radialGradient>
<radialGradient id="paint26_radial_1597_19660" cx="0" cy="0" r="1" gradientUnits="userSpaceOnUse" gradientTransform="translate(2481.42 602.58) rotate(180) scale(3201.29 795.102)">
<stop offset="0.03" stop-color="#47CBC3"/>
<stop offset="1" stop-color="#6B65EB"/>
</radialGradient>
<radialGradient id="paint27_radial_1597_19660" cx="0" cy="0" r="1" gradientUnits="userSpaceOnUse" gradientTransform="translate(2481.42 616.594) rotate(180) scale(3201.28 797.209)">
<stop offset="0.03" stop-color="#47CBC3"/>
<stop offset="1" stop-color="#6B65EB"/>
</radialGradient>
<radialGradient id="paint28_radial_1597_19660" cx="0" cy="0" r="1" gradientUnits="userSpaceOnUse" gradientTransform="translate(2481.42 630.638) rotate(180) scale(3201.28 799.35)">
<stop offset="0.03" stop-color="#47CBC3"/>
<stop offset="1" stop-color="#6B65EB"/>
</radialGradient>
<radialGradient id="paint29_radial_1597_19660" cx="0" cy="0" r="1" gradientUnits="userSpaceOnUse" gradientTransform="translate(2481.42 644.687) rotate(180) scale(3201.28 801.475)">
<stop offset="0.03" stop-color="#47CBC3"/>
<stop offset="1" stop-color="#6B65EB"/>
</radialGradient>
<radialGradient id="paint30_radial_1597_19660" cx="0" cy="0" r="1" gradientUnits="userSpaceOnUse" gradientTransform="translate(2481.42 658.717) rotate(180) scale(3201.28 803.625)">
<stop offset="0.03" stop-color="#47CBC3"/>
<stop offset="1" stop-color="#6B65EB"/>
</radialGradient>
<radialGradient id="paint31_radial_1597_19660" cx="0" cy="0" r="1" gradientUnits="userSpaceOnUse" gradientTransform="translate(2481.42 672.754) rotate(180) scale(3201.29 805.739)">
<stop offset="0.03" stop-color="#47CBC3"/>
<stop offset="1" stop-color="#6B65EB"/>
</radialGradient>
<radialGradient id="paint32_radial_1597_19660" cx="0" cy="0" r="1" gradientUnits="userSpaceOnUse" gradientTransform="translate(2481.42 686.794) rotate(180) scale(3201.28 807.882)">
<stop offset="0.03" stop-color="#47CBC3"/>
<stop offset="1" stop-color="#6B65EB"/>
</radialGradient>
<radialGradient id="paint33_radial_1597_19660" cx="0" cy="0" r="1" gradientUnits="userSpaceOnUse" gradientTransform="translate(2481.43 700.824) rotate(180) scale(3201.26 810.013)">
<stop offset="0.03" stop-color="#47CBC3"/>
<stop offset="1" stop-color="#6B65EB"/>
</radialGradient>
<radialGradient id="paint34_radial_1597_19660" cx="0" cy="0" r="1" gradientUnits="userSpaceOnUse" gradientTransform="translate(2481.42 714.856) rotate(180) scale(3201.28 812.145)">
<stop offset="0.03" stop-color="#47CBC3"/>
<stop offset="1" stop-color="#6B65EB"/>
</radialGradient>
<radialGradient id="paint35_radial_1597_19660" cx="0" cy="0" r="1" gradientUnits="userSpaceOnUse" gradientTransform="translate(2481.43 728.867) rotate(180) scale(3201.26 814.261)">
<stop offset="0.03" stop-color="#47CBC3"/>
<stop offset="1" stop-color="#6B65EB"/>
</radialGradient>
<radialGradient id="paint36_radial_1597_19660" cx="0" cy="0" r="1" gradientUnits="userSpaceOnUse" gradientTransform="translate(2481.42 742.925) rotate(180) scale(3201.28 816.426)">
<stop offset="0.03" stop-color="#47CBC3"/>
<stop offset="1" stop-color="#6B65EB"/>
</radialGradient>
<radialGradient id="paint37_radial_1597_19660" cx="0" cy="0" r="1" gradientUnits="userSpaceOnUse" gradientTransform="translate(2481.42 756.964) rotate(180) scale(3201.28 818.552)">
<stop offset="0.03" stop-color="#47CBC3"/>
<stop offset="1" stop-color="#6B65EB"/>
</radialGradient>
<radialGradient id="paint38_radial_1597_19660" cx="0" cy="0" r="1" gradientUnits="userSpaceOnUse" gradientTransform="translate(2481.42 770.99) rotate(180) scale(3201.28 820.702)">
<stop offset="0.03" stop-color="#47CBC3"/>
<stop offset="1" stop-color="#6B65EB"/>
</radialGradient>
<radialGradient id="paint39_radial_1597_19660" cx="0" cy="0" r="1" gradientUnits="userSpaceOnUse" gradientTransform="translate(2481.42 785.021) rotate(180) scale(3201.28 822.824)">
<stop offset="0.03" stop-color="#47CBC3"/>
<stop offset="1" stop-color="#6B65EB"/>
</radialGradient>
<radialGradient id="paint40_radial_1597_19660" cx="0" cy="0" r="1" gradientUnits="userSpaceOnUse" gradientTransform="translate(2481.42 799.082) rotate(180) scale(3201.28 824.991)">
<stop offset="0.03" stop-color="#47CBC3"/>
<stop offset="1" stop-color="#6B65EB"/>
</radialGradient>
<radialGradient id="paint41_radial_1597_19660" cx="0" cy="0" r="1" gradientUnits="userSpaceOnUse" gradientTransform="translate(2481.43 813.093) rotate(180) scale(3201.26 827.115)">
<stop offset="0.03" stop-color="#47CBC3"/>
<stop offset="1" stop-color="#6B65EB"/>
</radialGradient>
</defs>
</svg>
